<svg width="125" height="46" viewBox="0 0 125 46" fill="none" xmlns="http://www.w3.org/2000/svg">
<path d="M70.8677 22.0736C68.8283 22.0736 67.1953 21.6903 65.9687 20.9236C64.742 20.1416 64.1287 18.9533 64.1287 17.3586C64.1287 16.5153 64.2743 15.8713 64.5657 15.4266C64.857 14.982 65.2863 14.7596 65.8537 14.7596C66.2677 14.7596 66.605 14.867 66.8657 15.0816C67.1263 15.2963 67.2567 15.5723 67.2567 15.9096C67.2567 16.2163 67.2337 16.4846 67.1877 16.7146C67.1877 16.776 67.1723 16.8833 67.1417 17.0366C67.1263 17.19 67.1187 17.351 67.1187 17.5196C67.1187 18.2096 67.4637 18.7233 68.1537 19.0606C68.859 19.398 69.8403 19.5666 71.0977 19.5666C72.401 19.5666 73.4207 19.3366 74.1567 18.8766C74.8927 18.4013 75.2607 17.742 75.2607 16.8986C75.2607 16.3773 75.092 15.9326 74.7547 15.5646C74.4173 15.1813 73.9957 14.867 73.4897 14.6216C72.9837 14.361 72.2707 14.0466 71.3507 13.6786C70.17 13.2186 69.204 12.7816 68.4527 12.3676C67.7167 11.9536 67.0803 11.394 66.5437 10.6886C66.0223 9.96798 65.7617 9.07865 65.7617 8.02065C65.7617 6.91665 66.053 5.93531 66.6357 5.07665C67.2337 4.21798 68.0847 3.55098 69.1887 3.07565C70.308 2.60031 71.619 2.36265 73.1217 2.36265C74.241 2.36265 75.2683 2.53131 76.2037 2.86865C77.139 3.19065 77.8827 3.68898 78.4347 4.36365C79.002 5.03831 79.2857 5.86631 79.2857 6.84765C79.2857 7.81365 79.14 8.54198 78.8487 9.03265C78.5573 9.52331 78.128 9.76865 77.5607 9.76865C77.162 9.76865 76.8247 9.64598 76.5487 9.40065C76.288 9.15531 76.1577 8.86398 76.1577 8.52665C76.1577 8.23531 76.1807 7.96698 76.2267 7.72165C76.2727 7.26165 76.2957 6.97031 76.2957 6.84765C76.2957 6.20365 75.9813 5.71298 75.3527 5.37565C74.724 5.03831 73.942 4.86965 73.0067 4.86965C71.688 4.86965 70.676 5.11498 69.9707 5.60565C69.2807 6.08098 68.9357 6.75565 68.9357 7.62965C68.9357 8.21231 69.112 8.71065 69.4647 9.12465C69.8327 9.53865 70.285 9.88365 70.8217 10.1596C71.3583 10.4356 72.1097 10.7653 73.0757 11.1486C74.241 11.624 75.1763 12.0533 75.8817 12.4366C76.587 12.82 77.185 13.3413 77.6757 14.0006C78.1817 14.66 78.4347 15.4726 78.4347 16.4386C78.4347 18.248 77.7447 19.6433 76.3647 20.6246C75 21.5906 73.1677 22.0736 70.8677 22.0736ZM92.9383 16.7606C93.1377 16.7606 93.291 16.8526 93.3983 17.0366C93.521 17.2206 93.5823 17.4736 93.5823 17.7956C93.5823 18.409 93.4367 18.8843 93.1453 19.2216C92.44 20.0343 91.7117 20.7013 90.9603 21.2226C90.2243 21.744 89.381 22.0046 88.4303 22.0046C87.6483 22.0046 87.058 21.7823 86.6593 21.3376C86.2607 20.8776 86.0613 20.2183 86.0613 19.3596C86.0613 18.9303 86.1687 18.1636 86.3833 17.0596C86.5827 16.0936 86.6823 15.4266 86.6823 15.0586C86.6823 14.8133 86.598 14.6906 86.4293 14.6906C86.23 14.6906 85.9463 14.9513 85.5783 15.4726C85.2103 15.9786 84.8423 16.6533 84.4743 17.4966C84.1063 18.34 83.8073 19.2293 83.5773 20.1646C83.286 21.3913 82.5653 22.0046 81.4153 22.0046C80.9553 22.0046 80.6487 21.8436 80.4953 21.5216C80.3573 21.1843 80.2883 20.5863 80.2883 19.7276C80.2883 19.237 80.296 18.846 80.3113 18.5546L80.3343 16.7146C80.3343 14.3533 80.572 11.8923 81.0473 9.33165C81.538 6.77098 82.251 4.62431 83.1863 2.89165C84.137 1.14365 85.2717 0.269647 86.5903 0.269647C87.2957 0.269647 87.863 0.576314 88.2923 1.18965C88.737 1.78765 88.9593 2.56965 88.9593 3.53565C88.9593 5.08431 88.507 6.69431 87.6023 8.36565C86.6977 10.0216 85.2257 11.9613 83.1863 14.1846C83.1403 14.982 83.1173 15.8023 83.1173 16.6456C83.6233 15.3423 84.183 14.2843 84.7963 13.4716C85.425 12.6436 86.0383 12.0533 86.6363 11.7006C87.2497 11.348 87.8093 11.1716 88.3153 11.1716C89.312 11.1716 89.8103 11.67 89.8103 12.6666C89.8103 13.2646 89.6417 14.3456 89.3043 15.9096C89.013 17.2436 88.8673 18.1253 88.8673 18.5546C88.8673 19.168 89.0897 19.4746 89.5343 19.4746C89.841 19.4746 90.2013 19.2906 90.6153 18.9226C91.0447 18.5393 91.612 17.926 92.3173 17.0826C92.5013 16.868 92.7083 16.7606 92.9383 16.7606ZM86.1073 2.54665C85.8313 2.54665 85.5247 2.94531 85.1873 3.74265C84.85 4.52465 84.5203 5.59031 84.1983 6.93965C83.8917 8.27365 83.6387 9.73031 83.4393 11.3096C84.39 10.1903 85.172 8.97131 85.7853 7.65265C86.414 6.33398 86.7283 5.13798 86.7283 4.06465C86.7283 3.57398 86.6747 3.19831 86.5673 2.93765C86.46 2.67698 86.3067 2.54665 86.1073 2.54665ZM94.0643 22.0046C93.3743 22.0046 92.8069 21.6903 92.3623 21.0616C91.9329 20.4176 91.7183 19.6203 91.7183 18.6696C91.7183 17.5196 91.7949 16.4693 91.9483 15.5186C92.1016 14.5526 92.3546 13.533 92.7073 12.4596C92.8606 11.9996 93.0753 11.67 93.3513 11.4706C93.6273 11.2713 94.0643 11.1716 94.6623 11.1716C94.9996 11.1716 95.2296 11.2253 95.3523 11.3326C95.4903 11.44 95.5593 11.601 95.5593 11.8156C95.5593 11.9383 95.4749 12.3523 95.3063 13.0576C95.1529 13.625 95.0303 14.1386 94.9383 14.5986C94.6316 16.2086 94.4783 17.282 94.4783 17.8186C94.4783 18.1406 94.5166 18.3706 94.5933 18.5086C94.6699 18.6313 94.7926 18.6926 94.9613 18.6926C95.1913 18.6926 95.4749 18.4626 95.8123 18.0026C96.1649 17.5426 96.5329 16.845 96.9163 15.9096C97.3149 14.9743 97.6983 13.8243 98.0663 12.4596C98.1889 11.9996 98.3729 11.67 98.6183 11.4706C98.8789 11.2713 99.2623 11.1716 99.7683 11.1716C100.121 11.1716 100.366 11.2176 100.504 11.3096C100.642 11.3863 100.711 11.5396 100.711 11.7696C100.711 12.153 100.52 13.2033 100.136 14.9206C99.7069 16.8833 99.4923 18.0946 99.4923 18.5546C99.4923 18.846 99.5536 19.076 99.6763 19.2446C99.7989 19.398 99.9599 19.4746 100.159 19.4746C100.466 19.4746 100.826 19.2906 101.24 18.9226C101.67 18.5393 102.237 17.926 102.942 17.0826C103.126 16.868 103.333 16.7606 103.563 16.7606C103.763 16.7606 103.916 16.8526 104.023 17.0366C104.146 17.2206 104.207 17.4736 104.207 17.7956C104.207 18.409 104.062 18.8843 103.77 19.2216C103.111 20.0343 102.398 20.7013 101.631 21.2226C100.88 21.744 100.021 22.0046 99.0553 22.0046C98.3193 22.0046 97.7749 21.721 97.4223 21.1536C97.0849 20.5863 96.9163 19.789 96.9163 18.7616C96.6556 19.8043 96.2646 20.6093 95.7433 21.1766C95.2219 21.7286 94.6623 22.0046 94.0643 22.0046ZM115.406 16.7606C115.606 16.7606 115.759 16.8526 115.866 17.0366C115.989 17.2206 116.05 17.4736 116.05 17.7956C116.05 18.409 115.905 18.8843 115.613 19.2216C114.985 19.9883 114.295 20.6476 113.543 21.1996C112.792 21.7363 112.048 22.0046 111.312 22.0046C110.147 22.0046 109.258 21.3223 108.644 19.9576C108 20.7703 107.433 21.3146 106.942 21.5906C106.467 21.8666 105.907 22.0046 105.263 22.0046C104.328 22.0046 103.554 21.6596 102.94 20.9696C102.342 20.2643 102.043 19.352 102.043 18.2326C102.043 17.006 102.304 15.8713 102.825 14.8286C103.347 13.7706 104.06 12.912 104.964 12.2526C105.884 11.578 106.912 11.1793 108.046 11.0566C108.338 8.08198 108.89 5.54431 109.702 3.44365C110.53 1.32765 111.611 0.269647 112.945 0.269647C113.605 0.269647 114.149 0.568647 114.578 1.16665C115.023 1.76465 115.245 2.66931 115.245 3.88065C115.245 5.59798 114.824 7.60665 113.98 9.90665C113.137 12.2066 112.01 14.568 110.599 16.9906C110.661 17.88 110.791 18.5163 110.99 18.8996C111.205 19.283 111.473 19.4746 111.795 19.4746C112.209 19.4746 112.631 19.2906 113.06 18.9226C113.49 18.5546 114.065 17.9413 114.785 17.0826C114.969 16.868 115.176 16.7606 115.406 16.7606ZM112.692 2.52365C112.401 2.52365 112.11 3.04498 111.818 4.08765C111.527 5.11498 111.274 6.46431 111.059 8.13565C110.86 9.80698 110.714 11.555 110.622 13.3796C112.34 9.63831 113.198 6.63298 113.198 4.36365C113.198 3.78098 113.145 3.32865 113.037 3.00665C112.945 2.68465 112.83 2.52365 112.692 2.52365ZM106.068 19.6816C106.36 19.6816 106.651 19.5666 106.942 19.3366C107.234 19.0913 107.602 18.6466 108.046 18.0026C107.893 17.1746 107.816 16.247 107.816 15.2196C107.816 14.8516 107.832 14.2536 107.862 13.4256C107.019 13.6863 106.314 14.2536 105.746 15.1276C105.194 15.9863 104.918 16.9446 104.918 18.0026C104.918 19.122 105.302 19.6816 106.068 19.6816ZM122.321 11.1716C122.812 11.1716 123.18 11.302 123.425 11.5626C123.686 11.808 123.816 12.176 123.816 12.6666C123.816 13.0653 123.732 13.8166 123.563 14.9206C123.41 15.856 123.287 16.7453 123.195 17.5886C123.103 18.4166 123.057 19.3443 123.057 20.3716C123.057 20.9543 122.935 21.376 122.689 21.6366C122.459 21.882 122.076 22.0046 121.539 22.0046C121.033 22.0046 120.665 21.8743 120.435 21.6136C120.205 21.353 120.09 20.962 120.09 20.4406C120.09 19.8273 120.198 18.8153 120.412 17.4046C120.596 16.178 120.688 15.396 120.688 15.0586C120.688 14.8133 120.604 14.6906 120.435 14.6906C120.236 14.6906 119.952 14.9513 119.584 15.4726C119.216 15.9786 118.848 16.6533 118.48 17.4966C118.112 18.34 117.813 19.2293 117.583 20.1646C117.415 20.8853 117.215 21.376 116.985 21.6366C116.771 21.882 116.426 22.0046 115.95 22.0046C115.475 22.0046 115.122 21.836 114.892 21.4986C114.678 21.146 114.532 20.6093 114.455 19.8886C114.379 19.168 114.34 18.11 114.34 16.7146C114.34 14.3533 114.578 11.8923 115.053 9.33165C115.544 6.77098 116.257 4.62431 117.192 2.89165C118.143 1.14365 119.278 0.269647 120.596 0.269647C121.302 0.269647 121.869 0.576314 122.298 1.18965C122.743 1.78765 122.965 2.56965 122.965 3.53565C122.965 5.08431 122.513 6.69431 121.608 8.36565C120.704 10.0216 119.232 11.9613 117.192 14.1846C117.146 14.982 117.123 15.8023 117.123 16.6456C117.629 15.3423 118.189 14.2843 118.802 13.4716C119.431 12.6436 120.044 12.0533 120.642 11.7006C121.256 11.348 121.815 11.1716 122.321 11.1716ZM120.113 2.54665C119.837 2.54665 119.531 2.94531 119.193 3.74265C118.856 4.52465 118.526 5.59031 118.204 6.93965C117.898 8.27365 117.645 9.73031 117.445 11.3096C118.396 10.1903 119.178 8.97131 119.791 7.65265C120.42 6.33398 120.734 5.13798 120.734 4.06465C120.734 3.57398 120.681 3.19831 120.573 2.93765C120.466 2.67698 120.313 2.54665 120.113 2.54665ZM70.4307 45.0046C69.5413 45.0046 68.537 44.928 67.4177 44.7746C66.8043 44.698 66.3827 44.537 66.1527 44.2916C65.9227 44.0463 65.823 43.6476 65.8537 43.0956C65.961 41.5776 66.214 39.707 66.6127 37.4836C67.0113 35.245 67.4943 33.0906 68.0617 31.0206C68.169 30.6373 68.3837 30.369 68.7057 30.2156C69.0277 30.0623 69.4493 29.9856 69.9707 29.9856C70.906 29.9856 71.3737 30.2463 71.3737 30.7676C71.3737 30.9823 71.3277 31.2276 71.2357 31.5036C70.837 32.7303 70.4383 34.3786 70.0397 36.4486C69.641 38.5033 69.3573 40.466 69.1887 42.3366C69.6487 42.3826 70.17 42.4056 70.7527 42.4056C73.436 42.4056 75.437 41.593 76.7557 39.9676C78.0897 38.3423 78.7567 36.1726 78.7567 33.4586C78.7567 31.634 78.2353 30.2233 77.1927 29.2266C76.15 28.23 74.678 27.7316 72.7767 27.7316C71.55 27.7316 70.331 27.9233 69.1197 28.3066C67.9237 28.69 66.8427 29.196 65.8767 29.8246C65.6773 29.9626 65.4627 30.0316 65.2327 30.0316C64.972 30.0316 64.765 29.9243 64.6117 29.7096C64.4583 29.4796 64.3817 29.2036 64.3817 28.8816C64.3817 28.5136 64.443 28.2146 64.5657 27.9846C64.6883 27.7393 64.8953 27.517 65.1867 27.3176C66.2447 26.597 67.4867 26.0526 68.9127 25.6846C70.3387 25.3013 71.711 25.1096 73.0297 25.1096C74.9003 25.1096 76.518 25.4393 77.8827 26.0986C79.2473 26.7426 80.2977 27.6933 81.0337 28.9506C81.7697 30.208 82.1377 31.726 82.1377 33.5046C82.1377 35.82 81.6777 37.844 80.7577 39.5766C79.8377 41.294 78.496 42.628 76.7327 43.5786C74.9693 44.5293 72.8687 45.0046 70.4307 45.0046ZM93.9352 39.7606C94.1346 39.7606 94.2879 39.8526 94.3952 40.0366C94.5179 40.2206 94.5792 40.4736 94.5792 40.7956C94.5792 41.409 94.4336 41.8843 94.1422 42.2216C93.5749 42.9116 92.7699 43.548 91.7272 44.1306C90.6999 44.7133 89.5959 45.0046 88.4152 45.0046C86.8052 45.0046 85.5556 44.5676 84.6662 43.6936C83.7769 42.8196 83.3322 41.6236 83.3322 40.1056C83.3322 39.0476 83.5546 38.0663 83.9992 37.1616C84.4439 36.2416 85.0572 35.5133 85.8392 34.9766C86.6366 34.44 87.5336 34.1716 88.5302 34.1716C89.4196 34.1716 90.1326 34.44 90.6692 34.9766C91.2059 35.498 91.4742 36.211 91.4742 37.1156C91.4742 38.1736 91.0909 39.086 90.3242 39.8526C89.5729 40.604 88.2926 41.202 86.4832 41.6466C86.8666 42.352 87.5949 42.7046 88.6682 42.7046C89.3582 42.7046 90.1402 42.467 91.0142 41.9916C91.9036 41.501 92.6702 40.8646 93.3142 40.0826C93.4982 39.868 93.7052 39.7606 93.9352 39.7606ZM88.1392 36.4256C87.5719 36.4256 87.0889 36.7553 86.6902 37.4146C86.3069 38.074 86.1152 38.8713 86.1152 39.8066V39.8526C87.0199 39.638 87.7329 39.316 88.2542 38.8866C88.7756 38.4573 89.0362 37.959 89.0362 37.3916C89.0362 37.1003 88.9519 36.8703 88.7832 36.7016C88.6299 36.5176 88.4152 36.4256 88.1392 36.4256ZM96.9845 45.5106C96.1872 45.5106 95.5739 45.3266 95.1445 44.9586C94.7305 44.5906 94.5235 44.1766 94.5235 43.7166C94.5235 43.318 94.6692 42.973 94.9605 42.6816C95.2519 42.3903 95.6812 42.2446 96.2485 42.2446C96.4479 42.2446 96.6779 42.2676 96.9385 42.3136C97.2145 42.3443 97.4215 42.3673 97.5595 42.3826C97.5442 41.984 97.4522 41.6083 97.2835 41.2556C97.1302 40.903 96.9309 40.5656 96.6855 40.2436C96.4402 39.9063 96.2102 39.615 95.9955 39.3696C95.5202 40.2743 95.0449 41.0256 94.5695 41.6236C94.1095 42.2216 93.6035 42.789 93.0515 43.3256C92.7755 43.6016 92.4842 43.7396 92.1775 43.7396C91.9322 43.7396 91.7329 43.6553 91.5795 43.4866C91.4262 43.3026 91.3495 43.0803 91.3495 42.8196C91.3495 42.513 91.4569 42.2293 91.6715 41.9686L91.9705 41.6006C92.8139 40.558 93.4502 39.6993 93.8795 39.0246C94.1402 38.58 94.4469 37.9896 94.7995 37.2536C95.1522 36.5023 95.4972 35.728 95.8345 34.9306C96.1259 34.256 96.7315 33.9186 97.6515 33.9186C98.0809 33.9186 98.3799 33.957 98.5485 34.0336C98.7172 34.1103 98.8015 34.233 98.8015 34.4016C98.8015 34.4936 98.7709 34.6393 98.7095 34.8386C98.6482 35.038 98.5639 35.2373 98.4565 35.4366C98.1805 35.9886 98.0425 36.4563 98.0425 36.8396C98.0425 37.0696 98.1192 37.3226 98.2725 37.5986C98.4412 37.8746 98.6942 38.2196 99.0315 38.6336C99.5222 39.2776 99.8902 39.8296 100.136 40.2896C100.396 40.7343 100.527 41.225 100.527 41.7616C100.527 41.915 100.511 42.1296 100.481 42.4056C101.232 42.1143 102.114 41.34 103.126 40.0826C103.31 39.868 103.517 39.7606 103.747 39.7606C103.946 39.7606 104.099 39.8526 104.207 40.0366C104.329 40.2206 104.391 40.4736 104.391 40.7956C104.391 41.3783 104.245 41.8536 103.954 42.2216C103.187 43.1723 102.451 43.824 101.746 44.1766C101.056 44.514 100.197 44.698 99.1695 44.7286C98.5562 45.25 97.8279 45.5106 96.9845 45.5106ZM105.696 32.6536C105.052 32.6536 104.569 32.508 104.247 32.2166C103.925 31.91 103.764 31.4883 103.764 30.9516C103.764 30.415 103.971 29.9703 104.385 29.6176C104.814 29.2496 105.343 29.0656 105.972 29.0656C106.539 29.0656 106.999 29.2036 107.352 29.4796C107.705 29.7556 107.881 30.1466 107.881 30.6526C107.881 31.266 107.682 31.7566 107.283 32.1246C106.884 32.4773 106.355 32.6536 105.696 32.6536ZM103.488 45.0046C102.997 45.0046 102.66 44.905 102.476 44.7056C102.292 44.5063 102.2 44.192 102.2 43.7626C102.2 43.64 102.215 43.4253 102.246 43.1186C102.491 40.3126 102.898 37.7596 103.465 35.4596C103.588 34.9843 103.787 34.6546 104.063 34.4706C104.354 34.2713 104.814 34.1716 105.443 34.1716C106.102 34.1716 106.432 34.44 106.432 34.9766C106.432 35.0533 106.417 35.199 106.386 35.4136C105.696 38.695 105.282 41.4473 105.144 43.6706C105.113 44.1613 104.968 44.5063 104.707 44.7056C104.446 44.905 104.04 45.0046 103.488 45.0046Z" fill="white"/>
<circle cx="27.2414" cy="20.9045" r="19.9045" stroke="white" stroke-width="2"/>
<path d="M1 34.6924L53.4836 34.6924" stroke="white" stroke-width="4"/>
<path d="M53.4837 25.497H1.88965L44.559 2.66895M44.559 2.66895L39.1722 11.8738C44.1193 18.5013 51.0454 30.5044 39.1722 25.497C27.299 20.4895 30.9563 2.66895 30.9563 2.66895H44.559Z" stroke="white" stroke-width="4"/>
</svg>
