<svg width="79" height="79" viewBox="0 0 79 79" fill="none" xmlns="http://www.w3.org/2000/svg">
<path d="M77.5973 28.9494L52.3197 25.0817L40.9975 0.954582C40.7178 0.378498 40.1418 0 39.5 0C38.8582 0 38.2822 0.378498 38.0025 0.954582L26.6803 25.0817L1.40274 28.9494C0.793847 29.0316 0.283693 29.4595 0.0862212 30.052C-0.111251 30.628 0.0369033 31.2699 0.464793 31.7143L18.8139 50.5255L14.4858 77.0885C14.3871 77.7139 14.6504 78.3392 15.1606 78.7013C15.6708 79.0633 16.3454 79.0963 16.905 78.8001L39.5 66.3085L62.095 78.8001C62.3419 78.9318 62.6216 78.9975 62.885 78.9975C63.2305 78.9975 63.5597 78.8988 63.8394 78.7013C64.3495 78.3392 64.6129 77.7139 64.5142 77.0885L60.1861 50.5255L78.5352 31.7143C78.9631 31.2699 79.1112 30.628 78.9138 30.052C78.7163 29.4595 78.2061 29.0316 77.5973 28.9494Z" fill="#FFE84D"/>
</svg>
