<svg width="106" height="41" viewBox="0 0 106 41" fill="none" xmlns="http://www.w3.org/2000/svg">
<path fill-rule="evenodd" clip-rule="evenodd" d="M28.7053 11.0104H34.1206C34.863 11.0104 35.4307 11.5674 35.3871 12.2529L38.5582 37.7011C38.5582 39.5434 37.0733 41 35.1955 41H3.36271C1.48483 41 0 39.5434 0 37.7011L3.81253 12.2957C3.81253 11.5674 4.38026 11.0104 5.12267 11.0104H10.5379V8.99687C10.5379 4.02717 14.6431 0 19.6216 0C24.6002 0 28.7053 4.02717 28.7053 8.99687V11.0104ZM19.6216 2.48485C16.0406 2.48485 13.1582 5.35528 13.1582 8.91118V10.9248H26.085V8.91118C26.085 5.35528 23.2027 2.48485 19.6216 2.48485ZM10.4198 28.8198C10.4198 28.9673 10.3911 29.1083 10.3389 29.2375C11.6446 32.0086 14.7512 34.3549 18.2585 34.8384C21.7152 35.3149 25.6466 33.9869 28.6151 29.1878C28.5747 29.0724 28.5529 28.9486 28.5529 28.8198C28.5529 28.1949 29.0678 27.6883 29.7031 27.6883C30.3384 27.6883 30.8533 28.1949 30.8533 28.8198C30.8533 29.3012 30.5477 29.7124 30.1169 29.8759C26.828 35.3023 22.2323 37.0226 18.0298 36.4433C13.966 35.8831 10.3512 33.1762 8.8168 29.8603C8.40663 29.6874 8.1193 29.2866 8.1193 28.8198C8.1193 28.1949 8.63427 27.6883 9.26953 27.6883C9.90479 27.6883 10.4198 28.1949 10.4198 28.8198ZM14.3948 25.1186H16.4474V16.8376H13.2532V18.6412H14.3948V25.1186ZM23.6661 25.1186H26.0762L22.8242 21.0575L25.9609 17.1552H23.643L20.9446 20.6491V17.1552H18.9726V25.1186H20.9446V21.602L23.6661 25.1186Z" fill="white"/>
<path d="M57.4611 23.6601H54.018L50.1302 18.6364V23.6601H47.3131V12.2838H50.1302V17.2751L53.9851 12.2838H57.2964L52.8154 17.8585L57.4611 23.6601Z" fill="white"/>
<path d="M61.6993 23.6601H58.8822V14.6174H61.6993V23.6601Z" fill="white"/>
<path d="M61.9629 12.1866C61.9629 13.013 61.2874 13.6775 60.299 13.6775C59.2941 13.6775 58.6186 13.013 58.6186 12.1866C58.6186 11.3439 59.2941 10.6794 60.299 10.6794C61.2874 10.6794 61.9629 11.3439 61.9629 12.1866Z" fill="white"/>
<path d="M68.7488 17.4534C67.4144 17.4534 66.6402 17.9071 66.6402 19.4628V23.6601H63.8231V14.6174H66.6402V16.1245C67.2826 15.1684 68.2876 14.5202 69.5231 14.5202V17.4534H68.7488Z" fill="white"/>
<path fill-rule="evenodd" clip-rule="evenodd" d="M74.428 23.7897C72.1875 23.7897 70.3918 21.9747 70.3918 19.1225C70.3918 16.2704 72.1875 14.4877 74.4444 14.4877C75.8118 14.4877 76.7837 15.1036 77.278 15.8976V14.6174H80.095V23.6601H77.278V22.3798C76.7673 23.1739 75.7953 23.7897 74.428 23.7897ZM75.2681 21.3751C76.3389 21.3751 77.278 20.581 77.278 19.1387C77.278 17.6964 76.3389 16.9024 75.2681 16.9024C74.2138 16.9024 73.2583 17.6802 73.2583 19.1225C73.2583 20.5648 74.2138 21.3751 75.2681 21.3751Z" fill="white"/>
<path d="M91.3584 23.6601H88.5578V18.7498C88.5578 17.5182 87.8659 16.8375 86.7951 16.8375C85.7243 16.8375 85.0324 17.5182 85.0324 18.7498V23.6601H82.2154V14.6174H85.0324V15.8166C85.5925 15.0549 86.581 14.5202 87.8165 14.5202C89.9416 14.5202 91.3584 15.9462 91.3584 18.3771V23.6601Z" fill="white"/>
<path fill-rule="evenodd" clip-rule="evenodd" d="M96.8743 23.7897C94.6339 23.7897 92.8382 21.9747 92.8382 19.1225C92.8382 16.2704 94.6339 14.4877 96.8908 14.4877C98.2582 14.4877 99.2301 15.1036 99.7243 15.8976V14.6174H102.541V23.6601H99.7243V22.3798C99.2136 23.1739 98.2417 23.7897 96.8743 23.7897ZM97.7145 21.3751C98.7853 21.3751 99.7243 20.581 99.7243 19.1387C99.7243 17.6964 98.7853 16.9024 97.7145 16.9024C96.6602 16.9024 95.7047 17.6802 95.7047 19.1225C95.7047 20.5648 96.6602 21.3751 97.7145 21.3751Z" fill="white"/>
<path fill-rule="evenodd" clip-rule="evenodd" d="M54.3146 34.6798C55.6654 34.9553 56.5386 36.1221 56.5386 37.4186C56.5386 39.2984 55.1383 40.5138 52.7001 40.5138H47.3131V29.1376H52.5189C54.8747 29.1376 56.275 30.2881 56.275 32.087C56.275 33.4644 55.4348 34.3557 54.3146 34.6798ZM52.2059 38.2775C53.1449 38.2775 53.6886 37.8561 53.6886 37.0458C53.6886 36.2356 53.112 35.7656 52.173 35.7656H50.1302V38.2775H52.2059ZM51.9753 33.7399C52.8978 33.7399 53.4085 33.3348 53.4085 32.5569C53.4085 31.7791 52.8978 31.3577 51.9753 31.3577H50.1302V33.7399H51.9753Z" fill="white"/>
<path fill-rule="evenodd" clip-rule="evenodd" d="M61.7308 40.6435C59.4903 40.6435 57.6947 38.8285 57.6947 35.9763C57.6947 33.1241 59.4903 31.3415 61.7473 31.3415C63.1146 31.3415 64.0866 31.9573 64.5808 32.7514V31.4711H67.3978V40.5138H64.5808V39.2336C64.0701 40.0277 63.0981 40.6435 61.7308 40.6435ZM62.571 38.2289C63.6418 38.2289 64.5808 37.4348 64.5808 35.9925C64.5808 34.5502 63.6418 33.7561 62.571 33.7561C61.5166 33.7561 60.5612 34.534 60.5612 35.9763C60.5612 37.4186 61.5166 38.2289 62.571 38.2289Z" fill="white"/>
<path d="M69.0405 31.4711H76.0584V33.6751L72.154 38.2289H76.1407V40.5138H69.0075V38.3099L72.8295 33.7561H69.0405V31.4711Z" fill="white"/>
<path fill-rule="evenodd" clip-rule="evenodd" d="M81.2492 40.6435C79.0087 40.6435 77.2131 38.8285 77.2131 35.9763C77.2131 33.1241 79.0087 31.3415 81.2657 31.3415C82.633 31.3415 83.605 31.9573 84.0992 32.7514V31.4711H86.9162V40.5138H84.0992V39.2336C83.5885 40.0277 82.6165 40.6435 81.2492 40.6435ZM82.0894 38.2289C83.1602 38.2289 84.0992 37.4348 84.0992 35.9925C84.0992 34.5502 83.1602 33.7561 82.0894 33.7561C81.035 33.7561 80.0796 34.534 80.0796 35.9763C80.0796 37.4186 81.035 38.2289 82.0894 38.2289Z" fill="white"/>
<path fill-rule="evenodd" clip-rule="evenodd" d="M92.5126 40.6435C90.2722 40.6435 88.4765 38.8285 88.4765 35.9763C88.4765 33.1241 90.2722 31.3415 92.5291 31.3415C93.8964 31.3415 94.8684 31.9573 95.3626 32.7514V31.4711H98.1796V40.5138H95.3626V39.2336C94.8519 40.0277 93.8799 40.6435 92.5126 40.6435ZM93.3528 38.2289C94.4236 38.2289 95.3626 37.4348 95.3626 35.9925C95.3626 34.5502 94.4236 33.7561 93.3528 33.7561C92.2984 33.7561 91.343 34.534 91.343 35.9763C91.343 37.4186 92.2984 38.2289 93.3528 38.2289Z" fill="white"/>
<path d="M105.226 34.3071C103.891 34.3071 103.117 34.7609 103.117 36.3166V40.5138H100.3V31.4711H103.117V32.9783C103.76 32.0221 104.764 31.3739 106 31.3739V34.3071H105.226Z" fill="white"/>
</svg>
