<svg width="185" height="41" viewBox="0 0 185 41" fill="none" xmlns="http://www.w3.org/2000/svg">
<path d="M65.0062 14.4559C64.2828 13.2959 63.3318 12.4031 62.1533 11.7776C60.9864 11.1408 59.6912 10.8223 58.2676 10.8223C56.669 10.8223 55.2454 11.1692 53.9968 11.8629C52.76 12.5453 51.7915 13.5234 51.0913 14.7971C50.3796 16.0367 50.0237 17.464 50.0237 19.079C50.0237 20.6598 50.3679 22.0757 51.0563 23.3267C51.7448 24.5777 52.725 25.5614 53.9968 26.2779C55.2687 26.983 56.6923 27.3356 58.2676 27.3356C59.7028 27.3356 60.9981 27.0229 62.1533 26.3973C63.3085 25.7718 64.2595 24.8677 65.0062 23.6849V29.7068C63.0226 30.8896 60.7763 31.481 58.2676 31.481C55.8405 31.481 53.6468 30.9521 51.6864 29.8945C49.7261 28.8254 48.1917 27.3413 47.0831 25.442C45.9863 23.5428 45.4379 21.4218 45.4379 19.079C45.4379 16.7362 45.9863 14.6152 47.0831 12.7159C48.18 10.8166 49.7144 9.3325 51.6864 8.26346C53.6118 7.20579 55.8055 6.67696 58.2676 6.67696C59.4928 6.67696 60.6772 6.8248 61.8207 7.12049C62.9759 7.41619 64.0378 7.84835 65.0062 8.41699V14.4559Z" fill="white"/>
<path d="M80.9778 14.3024H85.6511L70.9135 38.3217H66.2052L72.9264 27.3185L65.8376 14.3024H70.581L75.6568 23.1902L80.9778 14.3024Z" fill="white"/>
<path d="M95.2862 14.2683C96.8498 14.2683 98.2792 14.6436 99.5745 15.3942C100.87 16.1334 101.885 17.1683 102.62 18.499C103.343 19.8182 103.705 21.2796 103.705 22.8832C103.705 24.4753 103.343 25.9311 102.62 27.2503C101.897 28.5695 100.887 29.6045 99.592 30.3551C98.3201 31.1171 96.8848 31.498 95.2862 31.498C94.3177 31.498 93.4251 31.3388 92.6083 31.0204C91.8031 30.7019 91.0913 30.2357 90.4729 29.6215V31.4298H86.3772V6.4893L90.4729 8.17816V16.1448C91.0913 15.5307 91.8031 15.0644 92.6083 14.7459C93.4251 14.4275 94.3177 14.2683 95.2862 14.2683ZM95.0412 18.0554C94.1544 18.0554 93.355 18.2601 92.6433 18.6695C91.9431 19.079 91.3947 19.6476 90.998 20.3755C90.6012 21.1033 90.4029 21.9392 90.4029 22.8832C90.4029 23.8157 90.5954 24.6459 90.9805 25.3738C91.3772 26.1017 91.9373 26.6703 92.6608 27.0797V27.0968C93.3492 27.5062 94.1427 27.7109 95.0412 27.7109C95.928 27.7109 96.7273 27.5119 97.4391 27.1138C98.1509 26.7044 98.7051 26.1301 99.1019 25.3909C99.4986 24.663 99.697 23.8271 99.697 22.8832C99.697 21.9506 99.4986 21.1204 99.1019 20.3925C98.7168 19.6647 98.1684 19.0903 97.4566 18.6695C96.7448 18.2601 95.9397 18.0554 95.0412 18.0554Z" fill="white"/>
<path d="M113.211 14.1659C114.774 14.1659 116.163 14.5299 117.376 15.2577C118.602 15.9856 119.553 17.0148 120.229 18.3454C120.906 19.6192 121.245 21.1147 121.245 22.832C121.245 23.412 121.21 23.9351 121.14 24.4014H109.08C109.313 25.516 109.833 26.386 110.638 27.0115C111.443 27.637 112.446 27.9497 113.648 27.9497C114.488 27.9497 115.329 27.7962 116.169 27.4891C117.021 27.1707 117.785 26.7272 118.462 26.1585L120.544 29.0586C119.599 29.8888 118.543 30.5086 117.376 30.918C116.21 31.3274 114.897 31.5322 113.438 31.5322C111.77 31.5322 110.27 31.1682 108.94 30.4404C107.621 29.7125 106.589 28.6833 105.842 27.3527C105.118 26.0334 104.757 24.5322 104.757 22.849C104.757 21.1772 105.107 19.6817 105.807 18.3625C106.519 17.0319 107.516 16.0026 108.8 15.2748C110.083 14.5355 111.554 14.1659 113.211 14.1659ZM112.966 17.7825C111.88 17.7825 110.994 18.0782 110.305 18.6695C109.617 19.2496 109.156 20.0968 108.922 21.2114H116.816C116.595 20.1082 116.151 19.2609 115.486 18.6695C114.821 18.0782 113.981 17.7825 112.966 17.7825Z" fill="white"/>
<path d="M133.793 19.1131C133.607 18.8515 133.21 18.6354 132.603 18.4648C132.008 18.2829 131.384 18.1919 130.73 18.1919C129.972 18.1919 129.313 18.3454 128.753 18.6525C128.204 18.9596 127.778 19.4145 127.475 20.0172C127.16 20.6314 127.002 21.3592 127.002 22.2008V31.4469H122.819V15.7695L126.967 14.0295V15.9742C128.052 14.8483 129.587 14.2853 131.571 14.2853C132.539 14.2853 133.28 14.382 133.793 14.5753V19.1131Z" fill="white"/>
<path d="M139.383 31.3957H134.867V6.76225H144.722C146.6 6.76225 148.216 7.06363 149.57 7.66639C150.935 8.25777 151.974 9.1221 152.685 10.2594C153.397 11.3967 153.753 12.7557 153.753 14.3365C153.753 15.9287 153.391 17.2991 152.668 18.4478C151.956 19.5851 150.918 20.4494 149.552 21.0408C148.246 21.6208 146.635 21.9108 144.722 21.9108H139.383V31.3957ZM139.558 17.7313H144.792C146.332 17.7313 147.458 17.4583 148.17 16.9125C148.893 16.3666 149.255 15.5079 149.255 14.3365C149.255 13.1651 148.893 12.3065 148.17 11.7606C147.458 11.2147 146.332 10.9417 144.792 10.9417H139.558V17.7313Z" fill="white"/>
<path d="M167.264 31.3274V29.5874C166.015 30.827 164.399 31.4469 162.416 31.4469C160.864 31.4469 159.446 31.0772 158.162 30.338C156.879 29.5874 155.864 28.5468 155.117 27.2162C154.382 25.9197 154.014 24.464 154.014 22.849C154.014 21.2569 154.376 19.8011 155.099 18.4819C155.823 17.1627 156.832 16.1277 158.127 15.3771C159.411 14.6265 160.84 14.2512 162.416 14.2512C163.396 14.2512 164.294 14.4104 165.111 14.7289C165.939 15.0473 166.657 15.5193 167.264 16.1448V15.8718L171.36 14.1318V31.3274H167.264ZM162.678 18.0213C161.791 18.0213 160.992 18.226 160.28 18.6354C159.58 19.0448 159.032 19.6135 158.635 20.3413C158.238 21.0692 158.04 21.9051 158.04 22.849C158.04 23.7816 158.232 24.6118 158.617 25.3397C159.014 26.0675 159.568 26.6362 160.28 27.0456V27.0627C160.957 27.4721 161.756 27.6768 162.678 27.6768C163.565 27.6768 164.358 27.4721 165.058 27.0627C165.77 26.6532 166.325 26.0789 166.721 25.3397C167.118 24.6118 167.316 23.7816 167.316 22.849C167.316 21.9278 167.118 21.0976 166.721 20.3584C166.336 19.6192 165.788 19.0448 165.076 18.6354C164.364 18.226 163.565 18.0213 162.678 18.0213Z" fill="white"/>
<path d="M172.935 8.21228L177.136 6.4893V31.2763H172.935V8.21228Z" fill="white"/>
<path d="M32.2492 27.3312C29.2275 32.2866 23.6796 35.6076 17.3359 35.6076C16.776 35.6076 16.2223 35.5817 15.6761 35.5311L15.6761 31.0094C16.2193 31.0783 16.7733 31.1139 17.3359 31.1139C21.9731 31.1139 26.0311 28.6963 28.2552 25.0838L32.2492 27.3312Z" fill="white"/>
<path d="M0 18.7113C0 23.141 1.74898 27.1725 4.6106 30.1858V18.3518L4.61584 18.3522C4.81084 11.6685 10.4311 6.30878 17.3359 6.30878C22.0922 6.30878 26.239 8.85206 28.4229 12.6194L32.4157 10.3705C29.4342 5.26111 23.7979 1.8151 17.3359 1.8151C7.76153 1.8151 0 9.3798 0 18.7113Z" fill="white"/>
<path fill-rule="evenodd" clip-rule="evenodd" d="M8.11472 18.7725L8.11469 41L11.8032 37.6747V34.1696L11.8659 26.1493C13.4593 27.2493 15.1855 27.7994 17.1109 27.7994C18.7376 27.7994 20.2314 27.4111 21.6256 26.6022C22.9867 25.8257 24.0822 24.7904 24.8789 23.4315C25.6756 22.0726 26.1071 20.6167 26.1071 19.0313C26.1071 17.4783 25.7088 15.99 24.9121 14.6311C24.0822 13.3045 22.9867 12.2368 21.5924 11.4603C20.1982 10.6838 18.7044 10.2632 17.1109 10.2632C15.5175 10.2632 14.0237 10.6515 12.6626 11.3956C11.2352 12.1721 10.1065 13.2398 9.30979 14.534C8.51308 15.8282 8.11472 17.2518 8.11472 18.7725ZM12.563 21.5873C12.0983 20.8108 11.8659 19.9372 11.8659 19.0313C11.8659 18.093 12.0983 17.2518 12.5962 16.4753C13.061 15.6988 13.6917 15.084 14.4884 14.6311C15.2851 14.1781 16.1814 13.9193 17.1109 13.9193C18.0404 13.9193 18.9367 14.1458 19.7334 14.5987C20.5302 15.084 21.1609 15.7311 21.6256 16.5076C22.0904 17.2841 22.356 18.1254 22.356 19.0313C22.356 19.9696 22.1236 20.8108 21.6588 21.5873C21.1609 22.3638 20.497 23.0109 19.7002 23.4639C18.9035 23.9168 18.0404 24.1433 17.1109 24.1433C16.115 24.1433 15.2519 23.9168 14.4884 23.4315C13.6917 22.9785 13.0278 22.3638 12.563 21.5873Z" fill="white"/>
<path d="M181.807 6.22318C183.614 6.22318 185 4.8721 185 3.11159C185 1.35109 183.614 0 181.807 0C180.001 0 178.615 1.35109 178.615 3.11159C178.615 4.83115 180.001 6.22318 181.807 6.22318ZM181.807 5.64999C180.358 5.64999 179.203 4.52409 179.203 3.11159C179.203 1.69909 180.358 0.573188 181.807 0.573188C183.257 0.573188 184.412 1.69909 184.412 3.11159C184.412 4.52409 183.257 5.64999 181.807 5.64999ZM181.986 4.12491C181.387 4.12491 180.904 3.67454 180.904 3.11159C180.904 2.54864 181.387 2.09828 181.986 2.09828C182.291 2.09828 182.564 2.21087 182.763 2.40534L182.994 1.8731C182.721 1.63768 182.322 1.51485 181.975 1.51485C181.062 1.51485 180.306 2.23134 180.306 3.11159C180.306 3.99184 181.062 4.70833 181.975 4.70833C182.322 4.70833 182.721 4.57527 182.994 4.33985L182.763 3.81784C182.564 4.01231 182.291 4.12491 181.986 4.12491Z" fill="white"/>
</svg>
